<?xml version="1.0" encoding="UTF-8" standalone="no"?>
<!-- Generator: Adobe Illustrator 16.0.0, SVG Export Plug-In . SVG Version: 6.00 Build 0)  -->

<svg
   xmlns:dc="http://purl.org/dc/elements/1.1/"
   xmlns:cc="http://creativecommons.org/ns#"
   xmlns:rdf="http://www.w3.org/1999/02/22-rdf-syntax-ns#"
   xmlns:svg="http://www.w3.org/2000/svg"
   xmlns="http://www.w3.org/2000/svg"
   xmlns:sodipodi="http://sodipodi.sourceforge.net/DTD/sodipodi-0.dtd"
   xmlns:inkscape="http://www.inkscape.org/namespaces/inkscape"
   version="1.1"
   id="Capa_1"
   x="0px"
   y="0px"
   width="16.000002"
   height="16"
   viewBox="0 0 11.156251 11.15625"
   xml:space="preserve"
   inkscape:version="0.91 r13725"
   sodipodi:docname="icon-mini-play.svg"><metadata
     id="metadata42"><rdf:RDF><cc:Work
         rdf:about=""><dc:format>image/svg+xml</dc:format><dc:type
           rdf:resource="http://purl.org/dc/dcmitype/StillImage" /><dc:title></dc:title></cc:Work></rdf:RDF></metadata><defs
     id="defs40" /><sodipodi:namedview
     pagecolor="#ffffff"
     bordercolor="#666666"
     borderopacity="1"
     objecttolerance="10"
     gridtolerance="10"
     guidetolerance="10"
     inkscape:pageopacity="0"
     inkscape:pageshadow="2"
     inkscape:window-width="1855"
     inkscape:window-height="1056"
     id="namedview38"
     showgrid="false"
     fit-margin-top="0"
     fit-margin-left="0"
     fit-margin-right="0"
     fit-margin-bottom="0"
     inkscape:zoom="14.860291"
     inkscape:cx="7.7487223"
     inkscape:cy="-9.9539234"
     inkscape:window-x="65"
     inkscape:window-y="24"
     inkscape:window-maximized="1"
     inkscape:current-layer="Capa_1" /><g
     id="g3"
     transform="matrix(0.03231534,0,0,0.02539062,-0.19016281,1.0458985)"><g
       id="play-arrow"><polygon
         points="318.75,178.5 38.25,0 38.25,357 "
         id="polygon6"
         style="fill:#ffffff" /></g></g><g
     id="g8"
     transform="matrix(0.03231534,0,0,0.02539062,-0.19016281,1.0458985)" /><g
     id="g10"
     transform="matrix(0.03231534,0,0,0.02539062,-0.19016281,1.0458985)" /><g
     id="g12"
     transform="matrix(0.03231534,0,0,0.02539062,-0.19016281,1.0458985)" /><g
     id="g14"
     transform="matrix(0.03231534,0,0,0.02539062,-0.19016281,1.0458985)" /><g
     id="g16"
     transform="matrix(0.03231534,0,0,0.02539062,-0.19016281,1.0458985)" /><g
     id="g18"
     transform="matrix(0.03231534,0,0,0.02539062,-0.19016281,1.0458985)" /><g
     id="g20"
     transform="matrix(0.03231534,0,0,0.02539062,-0.19016281,1.0458985)" /><g
     id="g22"
     transform="matrix(0.03231534,0,0,0.02539062,-0.19016281,1.0458985)" /><g
     id="g24"
     transform="matrix(0.03231534,0,0,0.02539062,-0.19016281,1.0458985)" /><g
     id="g26"
     transform="matrix(0.03231534,0,0,0.02539062,-0.19016281,1.0458985)" /><g
     id="g28"
     transform="matrix(0.03231534,0,0,0.02539062,-0.19016281,1.0458985)" /><g
     id="g30"
     transform="matrix(0.03231534,0,0,0.02539062,-0.19016281,1.0458985)" /><g
     id="g32"
     transform="matrix(0.03231534,0,0,0.02539062,-0.19016281,1.0458985)" /><g
     id="g34"
     transform="matrix(0.03231534,0,0,0.02539062,-0.19016281,1.0458985)" /><g
     id="g36"
     transform="matrix(0.03231534,0,0,0.02539062,-0.19016281,1.0458985)" /></svg>