<?xml version="1.0" encoding="iso-8859-1"?>
<!-- Generator: Adobe Illustrator 16.0.0, SVG Export Plug-In . SVG Version: 6.00 Build 0)  -->
<!DOCTYPE svg PUBLIC "-//W3C//DTD SVG 1.1//EN" "http://www.w3.org/Graphics/SVG/1.1/DTD/svg11.dtd">
<svg version="1.1" id="Capa_1" xmlns="http://www.w3.org/2000/svg" xmlns:xlink="http://www.w3.org/1999/xlink" x="0px" y="0px"
	 width="499.33px" height="499.33px" viewBox="0 0 499.33 499.33" style="enable-background:new 0 0 499.33 499.33;"
	 xml:space="preserve">
<g>
	<path d="M494.56,256.148c0,62.478-50.821,113.304-113.298,113.304h-9.398c-0.307-1.572-0.709-3.138-1.342-4.651
		c-3.682-8.938-12.323-14.712-21.999-14.712h-7.962v-4.847h40.701c49.118,0,89.087-39.963,89.087-89.094
		c0-49.118-39.969-89.083-89.087-89.083c-5.515,0-11.219,0.556-16.964,1.652l-14.517,2.784l0.142-14.786
		c0-0.564,0.035-1.114,0.077-1.669c0.018-72.179-58.641-130.829-130.744-130.829c-72.087,0-130.743,58.649-130.743,130.749
		c0,2.021,0.145,4.001,0.284,5.984l0.653,10.465l-7.66,3.426c-32.081,14.333-52.81,46.254-52.81,81.308
		c0,49.131,39.966,89.094,89.082,89.094h72.498c-0.319,2.488-0.543,5-0.543,7.565v7.95h-0.225c-7.359,0-13.867,3.428-18.238,8.694
		h-53.492c-62.468,0-113.292-50.826-113.292-113.304c0-41.753,23.108-80.011,59.545-99.67c-0.012-0.508-0.018-1.011-0.018-1.519
		C64.297,69.514,133.805,0,219.251,0c81.471,0,148.446,63.177,154.516,143.114c2.513-0.168,5.013-0.26,7.483-0.26
		C443.739,142.86,494.56,193.684,494.56,256.148z M252.783,441.439h-26.117v-67.246c0-3.115-2.533-5.646-5.654-5.646h-32.642
		c-3.124,0-5.648,2.53-5.648,5.646v67.234H159.57c-2.287,0-4.344,1.383-5.216,3.487c-0.878,2.116-0.393,4.54,1.224,6.159
		l46.603,46.601c1.103,1.111,2.551,1.655,3.996,1.655c1.448,0,2.894-0.55,3.996-1.655l46.604-46.601
		c1.613-1.619,2.098-4.043,1.224-6.159C257.125,442.811,255.068,441.439,252.783,441.439z M353.151,357.879h-26.126v-67.234
		c0-3.127-2.529-5.657-5.65-5.657h-32.646c-3.127,0-5.645,2.53-5.645,5.657v67.234h-23.158c-2.282,0-4.339,1.377-5.214,3.481
		c-0.875,2.11-0.39,4.546,1.224,6.159l46.606,46.601c1.1,1.111,2.542,1.655,3.996,1.655c1.442,0,2.891-0.556,3.995-1.655
		l46.601-46.601c1.62-1.613,2.104-4.049,1.224-6.159C357.489,359.244,355.432,357.879,353.151,357.879z"/>
</g>
<g>
</g>
<g>
</g>
<g>
</g>
<g>
</g>
<g>
</g>
<g>
</g>
<g>
</g>
<g>
</g>
<g>
</g>
<g>
</g>
<g>
</g>
<g>
</g>
<g>
</g>
<g>
</g>
<g>
</g>
</svg>
